HIERARCHY
ROOT ui
{
	 OFFSET 0 0 0
	 CHANNELS 3 XPosition YPosition Z Position
	 EndSite
	 {
	 OFFSET 0 -1 0
	 }
}
ROOT li
{
	 OFFSET 0 0 0
	 CHANNELS 3 XPosition YPosition Z Position
	 EndSite
	 {
	 OFFSET 0 -1 0
	 }
}
ROOT ul
{
	 OFFSET 0 0 0
	 CHANNELS 3 XPosition YPosition Z Position
	 EndSite
	 {
	 OFFSET 0 -1 0
	 }
}
ROOT ll
{
	 OFFSET 0 0 0
	 CHANNELS 3 XPosition YPosition Z Position
	 EndSite
	 {
	 OFFSET 0 -1 0
	 }
}
ROOT tt
{
	 OFFSET 0 0 0
	 CHANNELS 3 XPosition YPosition Z Position
	 EndSite
	 {
	 OFFSET 0 -1 0
	 }
}
ROOT tb
{
	 OFFSET 0 0 0
	 CHANNELS 3 XPosition YPosition Z Position
	 EndSite
	 {
	 OFFSET 0 -1 0
	 }
}
ROOT td
{
	 OFFSET 0 0 0
	 CHANNELS 3 XPosition YPosition Z Position
	 EndSite
	 {
	 OFFSET 0 -1 0
	 }
}
ROOT v
{
	 OFFSET 0 0 0
	 CHANNELS 3 XPosition YPosition Z Position
	 EndSite
	 {
	 OFFSET 0 -1 0
	 }
}
ROOT bn
{
	 OFFSET 0 0 0
	 CHANNELS 3 XPosition YPosition Z Position
	 EndSite
	 {
	 OFFSET 0 -1 0
	 }
}
MOTION
Frames: 32
Frame Time: 0.002
0.0022974519729614257	6.169589757919311E-4	0		0.5710021362304688	-2.5602919921875	0		-0.9743428344726562	0.2588159484863281	0		-0.306712646484375	-3.18444091796875	0		1.5511099853515624	-0.5330307006835937	0		3.014420654296875	-0.5807139282226562	0		4.43165771484375	-0.16929234313964844	0		5.7639228515625	0.190777099609375	0		-0.3703655395507813	5.93407275390625	0		
-0.03690805435180664	-0.007468673229217529	0		0.5231181030273437	-2.551197509765625	0		-0.9702719116210937	0.26281439208984375	0		-0.2873177490234375	-3.208795166015625	0		1.575814208984375	-0.5455316162109375	0		3.021146728515625	-0.5458422241210937	0		4.4357421875	-0.1643973388671875	0		5.7772080078125	0.16231820678710937	0		-0.22263491821289064	5.96195556640625	0		
0.006300182819366455	0.0036559629440307616	0		0.5499993286132813	-2.552733642578125	0		-0.9534642944335937	0.2555251617431641	0		-0.29922314453125	-3.19947265625	0		1.599778076171875	-0.5450234375	0		3.00438037109375	-0.5324756469726563	0		4.4340009765625	-0.15038339233398437	0		5.7801669921875	0.1776448974609375	0		-0.22354014587402343	5.96304052734375	0		
0.006244545936584473	0.0037063100337982177	0		0.5498946533203125	-2.55269384765625	0		-0.893312255859375	0.26428948974609373	0		-0.23087733459472656	-3.224908203125	0		1.612405029296875	-0.559282470703125	0		3.031720458984375	-0.5140732421875	0		4.4439404296875	-0.15063504028320313	0		5.7771337890625	0.16212431335449218	0		-0.2234813995361328	5.96309521484375	0		
0.0021199259757995604	8.352199792861938E-4	0		0.5726710205078125	-2.558161376953125	0		-0.9653289184570313	0.26691177368164065	0		-0.29689739990234376	-3.2194296875	0		1.51044482421875	-0.5530574951171875	0		3.03795263671875	-0.5002237548828125	0		4.4390517578125	-0.14257240295410156	0		5.78378515625	0.19279833984375	0		-0.2234271240234375	5.96314111328125	0		
0.0020633790493011475	8.666539788246154E-4	0		0.547635498046875	-2.554598388671875	0		-0.8934190063476563	0.2643970947265625	0		-0.24137811279296875	-3.23660595703125	0		1.5230699462890624	-0.5673349609375	0		3.01754345703125	-0.4698023376464844	0		4.43416748046875	-0.13452105712890625	0		5.79332275390625	0.1471610107421875	0		-0.370028076171875	5.9343583984375	0		
0.0020185670852661134	8.867530226707458E-4	0		0.5226104125976563	-2.5510458984375	0		-0.9536619262695313	0.25574320983886717	0		-0.2935628356933594	-3.239448486328125	0		1.4579637451171874	-0.5689302978515625	0		3.0407666015625	-0.45734649658203125	0		4.42555712890625	-0.11439907836914062	0		5.7891650390625	0.164515869140625	0		-0.22231367492675783	5.9621796875	0		
0.015858508110046386	-0.005409529209136963	0		0.5374629516601562	-2.554375244140625	0		-0.9414241943359375	0.2675058898925781	0		-0.21597903442382813	-3.255130859375	0		1.475791015625	-0.5753436889648438	0		3.038537841796875	-0.42034527587890624	0		4.42863720703125	-0.1095494613647461	0		5.78500537109375	0.1801146697998047	0		-0.22123899841308595	5.96117041015625	0		
0.006055264949798584	0.003799015998840332	0		0.54071240234375	-2.54046240234375	0		-0.9414203491210937	0.2675185546875	0		-0.2638628845214844	-3.246088623046875	0		1.482623046875	-0.582532470703125	0		3.015034423828125	-0.39689794921875	0		4.418984375	-0.09343470001220704	0		5.79050439453125	0.15710731506347655	0		-0.22307220458984375	5.9632109375	0		
0.0060814242362976076	0.0037763450145721434	0		0.5743492431640626	-2.556234619140625	0		-0.95316748046875	0.27777545166015627	0		-0.23710842895507814	-3.255692626953125	0		1.4693125	-0.5972991333007812	0		3.00953369140625	-0.37485867309570314	0		4.4258759765625	-0.09970219421386718	0		5.7905205078125	0.1568561248779297	0		-0.23811260986328125	5.9545224609375	0		
0.012851016044616699	-0.009413066864013673	0		0.522448486328125	-2.551151611328125	0		-0.9472169189453125	0.2726268615722656	0		-0.25931549072265625	-3.264244384765625	0		1.46626806640625	-0.6013040771484375	0		3.02192724609375	-0.3592296142578125	0		4.4142373046875	-0.08557923126220703	0		5.79833837890625	0.1492357177734375	0		-0.2379278106689453	5.95448828125	0		
0.002155601978302002	7.670850157737732E-4	0		0.5494456787109375	-2.5528115234375	0		-0.9302625122070313	0.2662203674316406	0		-0.22840109252929688	-3.26897314453125	0		1.4670096435546875	-0.6164134521484375	0		3.02972265625	-0.3265169677734375	0		4.41575634765625	-0.06576393127441406	0		5.79743310546875	0.12127220153808593	0		-0.3559212951660156	5.94601904296875	0		
-0.036922233581542965	-0.007453648090362549	0		0.5256097412109375	-2.547376953125	0		-0.9898692626953125	0.2794765930175781	0		-0.2454528045654297	-3.272671142578125	0		1.464017822265625	-0.6204584350585938	0		3.00513720703125	-0.3121219787597656	0		4.41032568359375	-0.04481965637207031	0		5.7872177734375	0.16643740844726562	0		-0.22321951293945314	5.96505615234375	0		
0.0024007949829101564	5.951200127601624E-4	0		0.5765598754882812	-2.553601806640625	0		-0.9226334838867187	0.2829363708496094	0		-0.22831532287597656	-3.2691337890625	0		1.4538990478515625	-0.6313682861328125	0		3.034958984375	-0.28093527221679687	0		4.4156337890625	-0.03713614273071289	0		5.7873115234375	0.16602362060546874	0		-0.22293576049804686	5.96496630859375	0		
0.002563767910003662	4.8218101263046263E-4	0		0.5139359130859374	-2.54035009765625	0		-0.9224632568359376	0.2828471069335938	0		-0.23234483337402342	-3.27415185546875	0		1.4606053466796876	-0.6516671752929688	0		3.020754638671875	-0.25180372619628905	0		4.39515185546875	-0.020905168533325195	0		5.7977138671875	0.12003348541259766	0		-0.23685804748535155	5.9541689453125	0		
0.002758336067199707	3.5298499464988707E-4	0		0.5628766479492188	-2.549567138671875	0		-0.9222613525390625	0.28274203491210936	0		-0.23327938842773438	-3.27625244140625	0		1.4113773193359376	-0.66975341796875	0		3.003056884765625	-0.24661744689941406	0		4.39534619140625	-0.021148971557617188	0		5.7943779296875	0.13011582946777345	0		-0.3566768798828125	5.9476845703125	0		
0.002988434076309204	2.0891599357128143E-4	0		0.5240275268554687	-2.549867919921875	0		-0.9120702514648438	0.2804027099609375	0		-0.22135780334472657	-3.28665185546875	0		1.42023583984375	-0.6861283569335938	0		2.985790771484375	-0.2234496307373047	0		4.38799560546875	-0.002236520051956177	0		5.7982451171875	0.1449805908203125	0		-0.2218838348388672	5.96459765625	0		
0.007322329998016358	0.0029624218940734865	0		0.5553120727539063	-2.546722412109375	0		-0.9077072143554688	0.28417922973632814	0		-0.24901158142089844	-3.27918896484375	0		1.4150260009765625	-0.7072069091796875	0		3.00775341796875	-0.19215327453613282	0		4.39068212890625	0.01644573402404785	0		5.806927734375	0.1370775146484375	0		-0.22146348571777344	5.96444580078125	0		
0.007632019996643066	0.0027919960021972655	0		0.5198345336914062	-2.534114990234375	0		-0.9081922607421875	0.2930503540039063	0		-0.15808843994140626	-3.294356201171875	0		1.4538905029296876	-0.7272658081054687	0		2.975595458984375	-0.16767329406738282	0		4.3913447265625	0.032167407989501955	0		5.8071455078125	0.1365443572998047	0		-0.2229677734375	5.96632421875	0		
0.003917943954467773	-3.015640079975128E-4	0		0.5409060668945312	-2.54476953125	0		-0.91700927734375	0.2850877685546875	0		-0.22168138122558595	-3.288124267578125	0		1.436744873046875	-0.7490985717773437	0		2.96527685546875	-0.1526797790527344	0		4.3727451171875	0.0343105583190918	0		5.7924345703125	0.13854656982421876	0		-0.22346774291992189	5.96716845703125	0		
0.004309601783752441	-4.96073991060257E-4	0		0.5153243408203125	-2.541400146484375	0		-0.9125250854492187	0.28882061767578127	0		-0.19248872375488282	-3.29495361328125	0		1.5297911376953126	-0.7653692626953125	0		2.958109130859375	-0.1327560272216797	0		4.3676025390625	0.05516444396972656	0		5.80120556640625	0.13065228271484375	0		-0.23718562316894531	5.95728955078125	0		
0.004739642143249512	-7.02692985534668E-4	0		0.5255164184570312	-2.5508330078125	0		-0.9799638061523438	0.29512860107421873	0		-0.24113844299316406	-3.29607421875	0		1.512037841796875	-0.7731981811523437	0		2.942027587890625	-0.11063499450683593	0		4.35430224609375	0.06720130157470704	0		5.80217626953125	0.12492308044433593	0		-0.2224520721435547	5.9667744140625	0		
0.009270004272460938	0.001989385962486267	0		0.5213098754882812	-2.534950439453125	0		-0.9024481811523437	0.29621707153320315	0		-0.17683383178710937	-3.3027041015625	0		1.504275634765625	-0.7832532958984375	0		2.935935302734375	-0.09073439025878906	0		4.35236572265625	0.0939970932006836	0		5.81332861328125	0.1377033233642578	0		-0.22192507934570313	5.96655810546875	0		
0.009765102386474609	0.0017583889961242675	0		0.52178955078125	-2.5351845703125	0		-0.9019512939453125	0.2959916076660156	0		-0.2190386962890625	-3.287986328125	0		1.480749755859375	-0.78396240234375	0		2.94484814453125	-0.07216471099853515	0		4.3480390625	0.10184834289550782	0		5.8102734375	0.15472970581054687	0		-0.23561148071289062	5.956640625	0		
-0.04274711227416992	6.874520182609559E-4	0		0.5171510009765625	-2.542316650390625	0		-0.9014317626953126	0.29574951171875	0		-0.1480066375732422	-3.310794677734375	0		1.4603612060546876	-0.7797448120117187	0		2.937811279296875	-0.05224086761474609	0		4.35266796875	0.10650824737548828	0		5.8177744140625	0.15390986633300782	0		-0.23606060791015626	5.95741943359375	0		
0.006756718158721924	-0.0016526399850845337	0		0.5176965942382813	-2.54257177734375	0		-0.9126485595703125	0.3067527465820313	0		-0.2220866241455078	-3.293397216796875	0		1.4485948486328124	-0.7937283935546875	0		2.902021728515625	-0.021677925109863282	0		4.32669873046875	0.12885627746582032	0		5.811693359375	0.14865165710449219	0		-0.23554061889648437	5.957162109375	0		
0.007311153888702393	-0.0019232109785079956	0		0.5182705688476562	-2.54283837890625	0		-0.8962551879882813	0.29912313842773436	0		-0.14792282104492188	-3.313301025390625	0		1.4470673828125	-0.7979426879882813	0		2.90668603515625	-0.017015859603881835	0		4.33449365234375	0.13946153259277344	0		5.81345263671875	0.1412661590576172	0		-0.21983676147460937	5.9655556640625	0		
0.01194627571105957	7.027379870414733E-4	0		0.5338240966796876	-2.545447998046875	0		-0.959474609375	0.3092386779785156	0		-0.20401078796386718	-3.299331787109375	0		1.4476470947265625	-0.798209716796875	0		2.911028564453125	0.01766036033630371	0		4.32859375	0.16337907409667968	0		5.81386083984375	0.14089804077148438	0		-0.21934100341796875	5.96526806640625	0		
0.012528924942016602	4.031929969787598E-4	0		0.5505787353515625	-2.54009326171875	0		-0.9068657836914062	0.309774169921875	0		-0.14667271423339845	-3.31389013671875	0		1.4672608642578124	-0.7979044799804688	0		2.90192236328125	0.031627599716186526	0		4.3353486328125	0.17101875305175782	0		5.8214091796875	0.1401693878173828	0		-0.2207933807373047	5.9680078125	0		
0.013119251251220702	8.877400308847427E-5	0		0.5221865844726562	-2.541756103515625	0		-0.9062821044921875	0.30944000244140624	0		-0.1779593048095703	-3.311502685546875	0		1.453114501953125	-0.7868594970703126	0		2.87995849609375	0.05187761688232422	0		4.31735888671875	0.1902115936279297	0		5.81769580078125	0.15563688659667968	0		-0.22033125305175782	5.9676884765625	0		
0.009643940925598145	-0.0031519219875335695	0		0.5207977294921875	-2.544028076171875	0		-0.8337396850585937	0.306501220703125	0		-0.14840208435058594	-3.317474609375	0		1.4444842529296875	-0.7979513549804688	0		2.87881201171875	0.06366245651245117	0		4.3220751953125	0.19590245056152344	0		5.81811962890625	0.15532376098632814	0		-0.22087161254882812	5.968375	0		
-0.038743240356445316	-0.0014190620183944702	0		0.47263848876953124	-2.535281982421875	0		-0.9781126708984375	0.3103214111328125	0		-0.20751414489746095	-3.30750634765625	0		1.4430208740234376	-0.801209716796875	0		2.887069091796875	0.09423963165283203	0		4.32304443359375	0.21367875671386719	0		5.82774365234375	0.14760707092285155	0		-0.2194886932373047	5.96700146484375	0		
